<svg xmlns="http://www.w3.org/2000/svg" version="1.1" xmlns:xlink="http://www.w3.org/1999/xlink" xmlns:svgjs="http://svgjs.dev/svgjs" width="500" height="500"><svg xmlns="http://www.w3.org/2000/svg" xmlns:xlink="http://www.w3.org/1999/xlink" width="500" zoomAndPan="magnify" viewBox="0 0 375 374.999991" height="500" preserveAspectRatio="xMidYMid meet" version="1.0"><defs><clipPath id="SvgjsClipPath1003"><path d="M 111 17.386719 L 357.886719 17.386719 L 357.886719 357.886719 L 111 357.886719 Z M 111 17.386719 " clip-rule="nonzero"></path></clipPath><clipPath id="SvgjsClipPath1002"><path d="M 17.386719 111 L 264 111 L 264 264 L 17.386719 264 Z M 17.386719 111 " clip-rule="nonzero"></path></clipPath></defs><g clip-path="url(#50d286f6d8)"><path fill="#5271ff" d="M 253.339844 357.644531 L 121.691406 357.644531 C 116.007812 357.644531 111.394531 353.03125 111.394531 347.347656 L 111.394531 249.992188 L 122.625 249.992188 L 122.625 346.421875 L 252.40625 346.421875 L 252.40625 262.699219 C 252.40625 257.019531 257.019531 252.40625 262.699219 252.40625 L 346.414062 252.40625 L 346.414062 122.625 L 262.699219 122.625 C 257.019531 122.625 252.40625 118.011719 252.40625 112.332031 L 252.40625 28.617188 L 122.625 28.617188 L 122.625 117.011719 L 111.394531 117.011719 L 111.394531 27.683594 C 111.394531 22 116.007812 17.386719 121.691406 17.386719 L 253.339844 17.386719 C 259.023438 17.386719 263.636719 22 263.636719 27.683594 L 263.636719 111.394531 L 347.347656 111.394531 C 353.03125 111.394531 357.644531 116.007812 357.644531 121.691406 L 357.644531 253.339844 C 357.644531 259.023438 353.03125 263.636719 347.347656 263.636719 L 263.636719 263.636719 L 263.636719 347.347656 C 263.636719 353.03125 259.023438 357.644531 253.339844 357.644531 Z M 253.339844 357.644531 " fill-opacity="1" fill-rule="nonzero"></path></g><g clip-path="url(#cf47d55e18)"><path fill="#00c2cb" d="M 117.011719 111.394531 L 17.386719 111.394531 L 17.386719 117.011719 C 17.386719 197.867188 83.167969 263.636719 164.015625 263.636719 L 263.636719 263.636719 L 263.636719 258.019531 C 263.636719 177.171875 197.867188 111.394531 117.011719 111.394531 Z M 252.171875 250.074219 C 174.964844 222.390625 74.789062 149.386719 39.496094 122.625 L 117.011719 122.625 C 189.003906 122.625 248.035156 179.101562 252.171875 250.074219 Z M 29.144531 128.90625 C 58.605469 151.527344 149.132812 218.671875 227.535156 252.414062 L 164.015625 252.414062 C 93.367188 252.40625 35.1875 198.007812 29.144531 128.90625 Z M 29.144531 128.90625 " fill-opacity="1" fill-rule="nonzero"></path></g></svg><style>@media (prefers-color-scheme: light) { :root { filter: none; } }
@media (prefers-color-scheme: dark) { :root { filter: none; } }
</style></svg>